# xmcd CD database file
#
# Track frame offsets:
#	150
#	22569
#	40750
#	55255
#	69697
#	90467
#	108780
#	126597
#	145790
#	161657
#
# Disc length: 2428 seconds
#
# Revision: 0
# Processed by: cddbd v1.4PL0 Copyright (c) Steve Scherf et al.
# Submitted via: CD2WAV32(EN) R3.19
#
DISCID=7c097a0a
DTITLE=Babyface - Christmas with
DYEAR=1900
DGENRE=
TTITLE0=You Were There
TTITLE1=Rudolph The Red Nosed Reindeer
TTITLE2=Winter Wonderland
TTITLE3=The Christmas Song
TTITLE4=White Christmas
TTITLE5=The Little Drummer Boy
TTITLE6=I'll Be Home For Christmas
TTITLE7=It Came Upon A Midnight Clear - The First Noel
TTITLE8=Sleigh Ride
TTITLE9=Silent Night
EXTD=
EXTT0=
EXTT1=
EXTT2=
EXTT3=
EXTT4=
EXTT5=
EXTT6=
EXTT7=
EXTT8=
EXTT9=
PLAYORDER=
